<?xml version="1.0" encoding="utf-8"?>
<!-- Generator: Adobe Illustrator 19.0.0, SVG Export Plug-In . SVG Version: 6.00 Build 0)  -->
<svg version="1.1" id="Layer_1" xmlns="http://www.w3.org/2000/svg" xmlns:xlink="http://www.w3.org/1999/xlink" x="0px" y="0px"
	 viewBox="-211.9 159.5 696.7 242.5" style="enable-background:new -211.9 159.5 696.7 242.5;" xml:space="preserve">
<style type="text/css">
	.st0{fill:#1E85BA;}
	.st1{fill:#FFFFFF;}
</style>
<path id="XMLID_2_" class="st0" d="M-71.5,293.6l13.1-3.4c0.4-2.7,0.6-5.4,0.6-8.2l-10.7,2.8c-2.1,0.5-4.2-0.7-4.7-2.8l0,0
	c-0.5-2.1,0.7-4.2,2.8-4.7l12.2-3.2c-0.3-2.1-0.6-4.2-1.1-6.3l-46.7,12.1c-2.1,0.5-4.2-0.8-4.7-2.9c-0.5-2,0.7-4.1,2.7-4.6l46.5-12
	c-0.8-2.2-1.7-4.3-2.7-6.4l-31,7.9c-2.1,0.6-4.2-0.7-4.8-2.7s0.7-4.2,2.7-4.8h0.1l28.9-7.5c-1.4-2.1-2.8-4-4.4-5.9l-49.7,13
	c-2.1,0.6-4.2-0.7-4.8-2.7c-0.6-2.1,0.7-4.2,2.7-4.8h0.1l45.5-11.7c-2.2-1.9-4.5-3.6-6.9-5.2l-21.6,5.6c-2.1,0.6-4.2-0.7-4.8-2.7
	s0.7-4.2,2.7-4.8h0.1l13.6-3.5c-31.5-13.8-68.3,0.7-82.1,32.5l9.7-2.5c2.1-0.5,4.2,0.7,4.7,2.8c0.5,2.1-0.7,4.2-2.8,4.7l-14.7,3.8
	c-0.7,2.4-1.2,4.8-1.5,7.2l34.2-8.8c2.1-0.5,4.2,0.8,4.7,2.9c0.5,2-0.7,4.1-2.7,4.6l-36.7,9.5c0,2.9,0.1,5.7,0.5,8.6l25.5-6.6
	c2.1-0.5,4.2,0.8,4.7,2.9c0.5,2-0.3,4.1-2.4,4.6l-25.7,6.6v0.2c0,2.7,1.2,5.4,2.3,8l33.2-8.6c2.1-0.6,4.1,0.7,4.7,2.7
	c0.6,2.1-0.7,4.2-2.8,4.8h-0.1l-31.8,8.2c1.3,2.4,2.8,4.7,4.5,6.8l46.1-11.9c2.1-0.5,4.2,0.8,4.7,2.9c0.5,2-0.7,4.1-2.7,4.6
	l-42.3,10.9c1.8,1.8,3.7,3.5,5.7,5.1l19.7-5.1c2.1-0.6,4.2,0.7,4.8,2.7c0.6,2.1-0.7,4.2-2.7,4.8h-0.1l-13.2,3.4
	c28.9,15.7,65,6.4,82.7-21.3l-12.9,3.3c-2.1,0.6-4.2-0.7-4.8-2.7c-0.6-2,0.7-4.2,2.7-4.8h0.1l19.7-5.1c1-2.4,1.9-4.8,2.6-7.2
	l-9.3,2.4c-2.1,0.5-4.2-0.7-4.7-2.8C-74.8,296.3-73.6,294.2-71.5,293.6z"/>
<g>
	<path class="st1" d="M-0.6,260.5c0.2,0.1,0.5,0.4,0.8,0.7l23.3,30.3c-0.1-0.5-0.1-1-0.1-1.4c0-0.5,0-0.9,0-1.3v-28.5h4.8v40.2h-2.8
		c-0.4,0-0.8-0.1-1.1-0.2c-0.3-0.1-0.6-0.4-0.9-0.8L0.1,269.3c0,0.5,0.1,0.9,0.1,1.4c0,0.4,0,0.9,0,1.2v28.7h-4.8v-40.2h2.8
		C-1.2,260.3-0.9,260.4-0.6,260.5z"/>
	<path class="st1" d="M65.5,260.3v4.4H46.2v13.4h15.6v4.3H46.2v13.7h19.3v4.4H40.7v-40.2H65.5z"/>
	<path class="st1" d="M82.1,285.5v15h-5.4v-40.2h11.9c2.5,0,4.8,0.3,6.6,0.9c1.9,0.6,3.4,1.4,4.7,2.5c1.2,1.1,2.2,2.4,2.8,3.9
		c0.6,1.5,0.9,3.2,0.9,5.1c0,1.9-0.3,3.6-1,5.1c-0.7,1.6-1.6,2.9-2.9,4c-1.3,1.1-2.8,2-4.7,2.6c-1.9,0.6-4,0.9-6.4,0.9H82.1z
		 M82.1,281.2h6.5c1.6,0,2.9-0.2,4.1-0.6c1.2-0.4,2.2-1,3-1.7c0.8-0.7,1.4-1.6,1.8-2.7c0.4-1,0.6-2.2,0.6-3.4c0-2.6-0.8-4.6-2.4-6
		c-1.6-1.4-4-2.2-7.2-2.2h-6.5V281.2z"/>
	<path class="st1" d="M140.6,260.3v4.6h-13v35.6h-5.4v-35.6h-13.1v-4.6H140.6z"/>
	<path class="st1" d="M164.8,296.2c1.7,0,3.2-0.3,4.5-0.8c1.3-0.6,2.4-1.3,3.3-2.4c0.9-1,1.6-2.2,2.1-3.6c0.5-1.4,0.7-2.9,0.7-4.6
		v-24.4h5.4v24.4c0,2.3-0.4,4.5-1.1,6.5c-0.7,2-1.8,3.7-3.2,5.2s-3.1,2.6-5,3.4s-4.2,1.2-6.7,1.2s-4.7-0.4-6.7-1.2s-3.7-2-5.1-3.4
		c-1.4-1.5-2.4-3.2-3.2-5.2c-0.7-2-1.1-4.1-1.1-6.5v-24.4h5.4v24.4c0,1.7,0.2,3.2,0.7,4.6c0.5,1.4,1.2,2.6,2.1,3.6
		c0.9,1,2,1.8,3.3,2.4C161.7,295.9,163.1,296.2,164.8,296.2z"/>
	<path class="st1" d="M196.8,260.5c0.2,0.1,0.5,0.4,0.8,0.7l23.3,30.3c-0.1-0.5-0.1-1-0.1-1.4c0-0.5,0-0.9,0-1.3v-28.5h4.8v40.2
		h-2.8c-0.4,0-0.8-0.1-1.1-0.2c-0.3-0.1-0.6-0.4-0.9-0.8l-23.3-30.3c0,0.5,0.1,0.9,0.1,1.4c0,0.4,0,0.9,0,1.2v28.7H193v-40.2h2.8
		C196.3,260.3,196.6,260.4,196.8,260.5z"/>
	<path class="st1" d="M263,260.3v4.4h-19.3v13.4h15.6v4.3h-15.6v13.7H263v4.4h-24.8v-40.2H263z"/>
	<path class="st1" d="M322.1,280.4c0,3-0.5,5.8-1.4,8.2c-1,2.5-2.3,4.6-4,6.3s-3.8,3.1-6.3,4.1c-2.4,1-5.1,1.4-8.1,1.4h-15v-40.2h15
		c3,0,5.7,0.5,8.1,1.4c2.4,1,4.5,2.3,6.3,4.1s3.1,3.9,4,6.4C321.6,274.7,322.1,277.4,322.1,280.4z M316.5,280.4c0-2.5-0.3-4.7-1-6.6
		c-0.7-1.9-1.6-3.6-2.9-4.9c-1.2-1.3-2.7-2.4-4.5-3.1c-1.8-0.7-3.7-1.1-5.9-1.1h-9.6v31.4h9.6c2.2,0,4.1-0.4,5.9-1.1
		s3.3-1.7,4.5-3.1c1.2-1.3,2.2-3,2.9-4.9S316.5,282.9,316.5,280.4z"/>
	<path class="st1" d="M364.2,300.5H360c-0.5,0-0.9-0.1-1.2-0.4c-0.3-0.2-0.5-0.6-0.7-0.9l-3.8-9.7h-18l-3.8,9.7
		c-0.1,0.3-0.4,0.6-0.7,0.9c-0.3,0.3-0.7,0.4-1.2,0.4h-4.2l16.1-40.2h5.5L364.2,300.5z M337.9,285.6h15l-6.3-16.4
		c-0.4-1-0.8-2.3-1.2-3.8c-0.2,0.8-0.4,1.5-0.6,2.1s-0.4,1.2-0.6,1.7L337.9,285.6z"/>
	<path class="st1" d="M392.7,266.6c-0.2,0.3-0.3,0.5-0.5,0.6c-0.2,0.1-0.4,0.2-0.7,0.2c-0.3,0-0.7-0.2-1.1-0.5
		c-0.4-0.3-1-0.7-1.6-1.1c-0.6-0.4-1.4-0.7-2.3-1.1c-0.9-0.3-2-0.5-3.3-0.5c-1.2,0-2.3,0.2-3.2,0.5c-0.9,0.3-1.7,0.8-2.3,1.3
		c-0.6,0.6-1.1,1.2-1.4,2c-0.3,0.8-0.5,1.6-0.5,2.5c0,1.1,0.3,2.1,0.8,2.8s1.3,1.4,2.2,1.9c0.9,0.5,1.9,1,3.1,1.4
		c1.2,0.4,2.3,0.8,3.5,1.2c1.2,0.4,2.4,0.9,3.5,1.4c1.2,0.5,2.2,1.2,3.1,2c0.9,0.8,1.6,1.8,2.2,2.9c0.6,1.1,0.8,2.5,0.8,4.2
		c0,1.8-0.3,3.4-0.9,5c-0.6,1.5-1.5,2.9-2.6,4c-1.2,1.1-2.6,2-4.2,2.7c-1.7,0.7-3.6,1-5.7,1c-2.6,0-5-0.5-7.1-1.4
		c-2.1-0.9-4-2.2-5.5-3.8l1.6-2.6c0.2-0.2,0.3-0.4,0.5-0.5c0.2-0.1,0.5-0.2,0.7-0.2c0.4,0,0.8,0.2,1.3,0.6c0.5,0.4,1.1,0.9,1.9,1.4
		c0.8,0.5,1.7,1,2.8,1.4c1.1,0.4,2.4,0.6,3.9,0.6c1.3,0,2.4-0.2,3.5-0.5c1-0.4,1.9-0.9,2.6-1.5c0.7-0.6,1.2-1.4,1.6-2.3
		s0.6-1.9,0.6-3c0-1.2-0.3-2.2-0.8-3s-1.3-1.4-2.2-2c-0.9-0.5-1.9-1-3.1-1.3c-1.2-0.4-2.3-0.7-3.5-1.1c-1.2-0.4-2.4-0.8-3.5-1.3
		s-2.2-1.2-3.1-2c-0.9-0.8-1.6-1.8-2.2-3c-0.6-1.2-0.8-2.7-0.8-4.5c0-1.4,0.3-2.8,0.8-4.1c0.6-1.3,1.4-2.5,2.4-3.5
		c1-1,2.3-1.9,3.9-2.5c1.5-0.6,3.3-0.9,5.3-0.9c2.2,0,4.3,0.4,6.1,1.1c1.9,0.7,3.5,1.7,4.9,3.1L392.7,266.6z"/>
	<path class="st1" d="M437.3,300.5h-5.5v-18.3h-21.7v18.3h-5.5v-40.2h5.5v17.9h21.7v-17.9h5.5V300.5z"/>
</g>
</svg>
